<svg width="169" height="67" viewBox="0 0 169 67" fill="none" xmlns="http://www.w3.org/2000/svg">
<g clip-path="url(#clip0_451_605)">
<path fill-rule="evenodd" clip-rule="evenodd" d="M32.0655 14.7028C32.0655 14.7028 32.7923 12.9529 35.104 13.3498C37.4158 13.7467 38.8934 16.0215 38.8934 16.0215C38.8934 16.0215 35.9506 13.7002 32.0663 14.7035M32.2686 19.8236C32.2686 19.8236 29.7071 18.4356 26.8475 20.2784C23.988 22.1212 22.5104 24.5011 22.5104 24.5011C22.5104 24.5011 24.5599 22.2964 26.7876 21.3046C29.0153 20.3127 30.3622 20.721 30.3622 20.721C30.3622 20.721 28.1104 20.7911 25.1077 24.1034C22.105 27.4165 19.0789 31.8959 13.026 33.1796C13.026 33.1796 17.3391 30.7532 19.6983 27.4401C19.6983 27.4401 15.8856 30.3099 13.3598 31.0564C10.8341 31.803 9.52296 32.0133 9.52296 32.0133C9.52296 32.0133 12.8595 29.8665 15.719 25.7139C18.5786 21.5613 21.1526 16.8252 25.6563 15.8919C30.1599 14.9587 30.6603 16.6385 32.2686 19.8229V19.8236ZM25.0369 14.9123C25.0369 14.9123 21.1051 15.7289 17.1967 21.4684C13.289 27.2078 6.67586 31.4541 6.67586 31.4541C6.67586 31.4541 9.78596 26.9861 12.5739 21.9932C15.3619 17.0004 20.3184 14.3173 25.0369 14.9123ZM18.2697 7.3186C18.2697 7.3186 18.9132 3.7724 15.2436 1.81227C11.5741 -0.14785 6.42687 3.74878 6.42687 3.74878C6.42687 3.74878 9.82253 2.65178 12.2767 3.84172C14.7316 5.03166 15.5416 7.24775 15.5416 7.24775C15.5416 7.24775 16.9119 6.85085 18.2697 7.31783V7.3186ZM19.3419 8.74165C19.3419 8.74165 17.5546 7.66827 15.1837 8.13525C12.8128 8.60224 11.0971 12.3 11.0971 12.3C11.0971 12.3 13.987 8.65252 19.3419 8.74165ZM13.7068 6.8638C13.7068 6.8638 12.444 3.78382 8.01188 4.30871C3.57977 4.83359 2.56668 7.99508 3.01953 9.72133C3.47239 11.4476 3.59144 12.521 3.51986 13.7574C3.44827 14.9938 5.08074 16.3353 6.84394 15.834C8.60713 15.332 9.44126 14.1893 9.44126 13.9326C9.44126 13.6759 9.56031 12.4044 9.98905 11.4361C10.4178 10.4679 10.9539 9.90797 10.9539 9.90797C10.9539 9.90797 8.91682 10.5608 8.07023 11.7858C7.22443 13.0108 7.81968 13.944 7.81968 13.944C7.81968 13.944 6.77157 13.7688 6.83071 12.1827C6.88984 10.5959 8.73707 9.20787 8.73707 9.20787C8.73707 9.20787 6.83071 9.81427 5.75848 10.9692C4.68624 12.1241 4.65045 13.0809 4.65045 13.0809C4.65045 13.0809 4.38823 11.3897 5.9849 9.69771C7.58158 8.00651 10.8107 7.27136 10.8107 7.27136C10.8107 7.27136 9.52374 6.80438 8.03444 7.08472C6.54514 7.36507 4.73371 8.20458 4.73371 8.20458C4.73371 8.20458 6.33038 6.48975 8.78454 6.07C11.2387 5.65024 13.7053 6.86304 13.7053 6.86304L13.7068 6.8638ZM42.8952 35.3035C42.8952 35.3035 44.4444 33.6123 43.9916 31.4655C43.5387 29.3188 43.194 27.6397 41.907 23.1832C40.62 18.7274 37.7605 15.9742 31.8508 15.6474C31.8508 15.6474 33.4233 17.5374 34.329 20.8033C34.329 20.8033 38.4756 21.9696 40.0007 25.1197C40.0007 25.1197 40.0481 21.7137 37.7846 19.3802C37.7846 19.3802 39.9057 20.3721 40.5609 23.078C41.2161 25.784 41.872 28.0237 42.6104 30.2405C43.3489 32.4566 43.373 33.6466 42.8952 35.3035ZM18.8665 33.0752C18.8665 33.0752 21.5595 31.9317 23.7756 32.0254C25.9916 32.1191 30.7342 34.1486 30.9365 34.3467C31.1388 34.5447 30.9124 35.1862 30.8532 35.2098C30.7933 35.2334 24.7287 32.8413 23.6091 32.7834C22.4894 32.7248 18.8673 33.0752 18.8673 33.0752H18.8665ZM19.468 37.077C19.468 37.077 20.8086 36.0272 22.0357 37.0884C23.2628 38.1496 23.5188 38.6577 25.3061 38.2844C27.0934 37.9111 28.0054 38.4246 28.0054 38.4246C28.0054 38.4246 26.7783 38.3431 25.4555 38.6691C24.1327 38.996 23.8409 39.0249 22.8582 38.9023C21.8754 38.7796 21.3572 38.9777 21.3572 38.9777C21.3572 38.9777 21.6786 38.593 22.2326 38.5229C22.2326 38.5229 21.8396 37.9774 21.1572 37.8723C20.4748 37.7672 20.2632 37.8609 20.2632 37.8609C20.2632 37.8609 20.7013 37.4556 21.4996 37.5897C21.4996 37.5897 21.2374 37.1318 20.5464 37.0412C19.8555 36.9505 19.468 37.0762 19.468 37.0762V37.077ZM33.7696 38.8908C33.7696 38.8908 34.3119 38.2022 35.837 38.6463C37.3621 39.0897 37.7729 38.6402 38.5355 38.5762C39.298 38.5122 39.5299 39.1476 39.5299 39.1476C39.5299 39.1476 39.2086 38.9701 38.4546 39.194C38.4546 39.194 38.9191 39.2435 39.1401 39.629C39.1401 39.629 38.7705 39.4309 38.2196 39.5673C38.2196 39.5673 38.4554 39.7364 38.5238 40.0518C38.5238 40.0518 38.1573 39.7867 37.2905 39.7311C36.4237 39.6755 35.9646 39.4401 35.2324 39.0782C34.4995 38.7164 33.7696 38.8916 33.7696 38.8916V38.8908ZM33.719 42.1689C33.719 42.1689 34.2435 42.7875 34.9935 43.7671C35.7444 44.7468 33.4443 45.8789 33.4443 45.8789C33.4443 45.8789 34.2069 45.0272 34.2668 44.3507C34.3267 43.6742 33.719 42.1696 33.719 42.1696V42.1689ZM30.3708 43.5805C30.3708 43.5805 29.7989 44.1755 29.7452 44.7354C29.6915 45.2953 30.5319 45.3593 31.1038 45.453L31.6757 45.5467C31.6757 45.5467 30.5257 46.1242 29.6028 45.7158C28.6792 45.3075 28.9889 44.2341 30.3716 43.5813L30.3708 43.5805ZM27.2319 49.4365C27.2319 49.4365 27.9882 49.5241 29.2457 48.5962C30.5023 47.6691 31.3131 47.5114 31.6166 47.6744C31.92 47.8382 32.2359 47.9837 32.3674 47.9837C32.4989 47.9837 33.1121 47.7331 33.4576 47.8321C33.803 47.9312 34.4644 48.5962 34.4107 49.1447C34.3571 49.6932 33.8746 49.9027 33.3502 49.7862C32.8257 49.6696 32.2422 49.2849 31.5092 49.2788C30.7762 49.2727 30.2821 49.419 28.9298 49.6346C27.5774 49.8501 27.1424 49.5706 27.1424 49.5706C27.1424 49.5706 26.8117 49.553 26.7347 49.355C26.6569 49.1569 26.9697 48.9756 27.2319 49.4365ZM28.2831 50.5883C28.2831 50.5883 29.6472 51.533 31.2921 51.6031C32.9362 51.6731 33.5198 50.7864 33.5198 50.7864C33.5198 50.7864 33.3051 52.1691 31.2438 52.1866C29.1826 52.2041 28.2831 50.5883 28.2831 50.5883ZM8.4803 36.7121C8.4803 36.7121 8.28966 34.7756 9.13546 34.496C9.98127 34.2156 11.8285 35.5457 11.9717 36.4325C12.1148 37.3192 11.0068 37.9843 11.1017 38.4619C11.1974 38.9403 12.3529 39.2085 12.7225 40.0488C13.0921 40.889 12.4012 41.3438 11.5429 41.3438C10.6847 41.3438 10.0412 40.889 10.0412 40.889C10.0412 40.889 11.3998 41.2159 11.781 40.8075C12.1623 40.3992 11.3881 39.8743 10.5773 39.1978C9.76729 38.5213 10.494 37.6697 10.8395 36.9817C11.185 36.2931 8.89736 33.9368 8.4803 36.7128V36.7121ZM32.4235 66.9565C32.4235 66.9565 28.4917 66.5832 26.0134 62.8968C23.5351 59.2104 19.2579 50.8816 19.2579 50.8816C19.2579 50.8816 27.0032 55.8509 29.588 55.9674C32.1737 56.084 32.8405 54.859 33.9727 53.1328C35.1048 51.4065 39.0607 45.2824 39.4179 42.4355C39.7758 39.5886 39.5968 38.3294 40.0022 36.9528C40.2979 35.948 40.5306 35.1488 40.5601 33.8286C40.0326 33.8797 39.1027 33.9978 38.0111 34.2591C36.307 34.6674 35.104 35.4604 35.104 35.4604C35.104 35.4604 35.3063 34.2004 37.0345 33.5003C38.3604 32.9632 39.8902 32.6181 40.5298 32.4871C40.522 32.3652 40.5134 32.2403 40.5041 32.1108C40.3135 29.6379 39.456 24.9597 36.1669 23.2563C32.8787 21.5529 30.2813 21.3434 27.6832 23.9092C25.0859 26.4757 20.0578 33.6847 12.6945 34.8517C12.6945 34.8517 12.9031 35.1488 12.9739 35.5747C12.9739 35.5747 10.466 33.4226 8.97673 33.7144C7.48743 34.0061 7.09449 36.1819 8.33323 39.4249C9.57198 42.6679 10.9959 42.9947 11.8775 42.6503C12.7591 42.306 14.4756 41.9266 15.1067 44.3065C15.7377 46.6864 16.6201 48.226 16.6201 48.226C16.6201 48.226 16.0964 57.8262 9.23351 63.0994C9.23351 63.0994 15.1907 56.3339 12.4743 44.3888C12.4743 44.3888 10.866 45.0066 9.25685 43.4556C7.6485 41.9045 4.72982 37.9028 5.39665 35.4772C5.39665 35.4772 4.22871 33.6572 4.84887 30.7174C4.84887 30.7174 2.77521 24.0448 6.63618 17.3721C6.63618 17.3721 4.28941 17.7104 3.03743 15.7038C3.03743 15.7038 2.75187 17.9549 4.33609 18.5971C4.33609 18.5971 2.31068 18.2474 1.84537 16.4503C1.38084 14.654 2.21497 12.9971 1.76211 10.3612C1.30925 7.72464 2.39394 5.17031 4.15713 4.07331C4.15713 4.07331 0.629965 5.44989 0.0580557 9.5324C0.0580557 9.5324 -0.728612 5.49636 3.46539 2.67311C7.66017 -0.14785 12.8431 -0.649879 15.6545 0.761744C18.4665 2.17337 19.3606 4.58829 19.3007 5.85974C19.3007 5.85974 20.2663 4.14492 19.8492 2.04539C19.8492 2.04539 21.2677 4.37879 20.4811 6.85161C20.4811 6.85161 21.947 5.85974 22.4473 4.27366C22.4473 4.27366 22.543 6.09362 21.4708 7.86633C21.4708 7.86633 31.4321 5.90621 37.0555 12.9994C37.0555 12.9994 40.0824 13.9326 42.0603 18.6223C44.0383 23.3119 43.7045 25.061 45.1821 28.8175C46.6597 32.5739 45.7307 34.7672 43.8718 36.8896C42.0129 39.0127 41.3935 39.6656 41.3935 39.6656C41.3935 39.6656 41.2869 42.0455 40.7982 43.9005C40.3096 45.7554 37.1053 51.4713 34.9842 54.504C32.8631 57.5368 31.159 58.0152 28.7765 57.3273C28.7765 57.3273 27.4848 59.8664 28.133 62.7285C28.7811 65.5906 32.4235 66.9565 32.4235 66.9565Z" fill="#5C5354"/>
</g>
<path d="M61.6952 42H61.4386C61.1819 42 61.0353 41.8533 61.0353 41.5234C61.0353 41.2301 61.1819 41.0467 61.4386 41.0467H61.9885C63.1618 41.0467 63.6017 40.2401 63.6017 38.0403V19.5251C63.6017 17.2886 63.1251 16.5187 61.8419 16.5187H61.5486C61.2919 16.5187 61.1086 16.2987 61.1086 16.042C61.1086 15.7487 61.2919 15.5654 61.5486 15.5654H61.8052H74.3442C79.5138 15.5654 82.8502 17.9852 82.8502 21.7616C82.8502 23.5215 82.0069 25.2447 80.5771 26.4546C79.8804 27.0045 79.3672 27.3345 78.0106 27.9211C82.8502 28.9844 85.27 31.3308 85.27 34.9606C85.27 39.3969 81.567 42 75.3708 42H61.6952ZM66.2415 19.3051V27.4078C68.1847 27.5545 68.9546 27.6278 70.3845 27.6278C72.7677 27.6278 74.4175 27.4445 75.7374 27.1878C78.4872 26.5279 80.0638 24.6947 80.0638 22.1282C80.0638 18.3152 77.2773 16.482 71.4111 16.482L69.248 16.5187C67.6714 16.5553 67.0115 16.6653 66.6082 17.1053C66.2782 17.5453 66.2415 17.7652 66.2415 19.3051ZM70.4212 28.5811C68.808 28.5811 68.148 28.6177 66.2049 28.801V37.2704C66.2049 39.5802 66.4248 40.0568 67.7081 40.4601C68.698 40.7168 70.1279 40.9001 72.3277 40.9001C75.0408 40.9001 76.8374 40.6434 78.4506 40.1301C81.017 39.2869 82.4469 37.417 82.4469 34.8872C82.4469 31.7708 80.1371 29.6443 75.9941 28.911C74.6742 28.6911 72.8043 28.5811 70.4212 28.5811ZM89.1406 33.384C89.4339 35.9505 89.7272 36.9771 90.6438 38.2236C91.7071 39.7268 93.2836 40.5334 95.1168 40.5334C97.06 40.5334 99.4065 39.2136 100.213 37.637C100.36 37.307 100.47 37.197 100.653 37.197C100.836 37.197 100.983 37.3804 100.983 37.5637C100.983 37.7837 100.763 38.297 100.396 38.9569C99.0398 41.1567 96.73 42.5133 94.2369 42.5133C89.9106 42.5133 86.7941 38.9202 86.7941 33.9706C86.7941 28.7644 90.2039 24.8414 94.7868 24.8414C96.73 24.8414 98.4166 25.5746 99.4798 27.0045C100.213 27.9211 100.8 29.2777 100.8 29.9743C100.8 30.5609 100.616 30.7076 99.4798 30.9275L89.1406 33.384ZM90.5338 27.9944C89.6539 29.2777 89.3973 30.2309 89.1406 32.6141L96.9867 30.3043C97.9033 30.0476 98.2332 29.7543 98.2332 29.2777C98.2332 28.8744 98.0133 28.3244 97.6466 27.7745C96.7667 26.4546 95.7768 25.9046 94.2736 25.9046C92.7703 25.9046 91.4871 26.6379 90.5338 27.9944ZM114.231 31.6975V29.4977C114.231 27.0412 112.984 25.8313 110.418 25.8313C109.061 25.8313 107.741 26.2346 106.752 26.9679C106.275 27.3345 106.092 27.7011 106.092 28.0311C106.092 28.2144 106.128 28.4344 106.238 28.6911C106.348 28.9844 106.422 29.2043 106.458 29.2043C106.495 29.351 106.532 29.4977 106.532 29.7176C106.532 30.4876 105.982 31.1109 105.212 31.1109C104.442 31.1109 103.855 30.4142 103.855 29.571C103.855 26.9679 107.228 24.8047 111.115 24.8047C114.634 24.8047 116.394 26.3446 116.394 29.571V39.1769C116.394 40.5701 116.504 40.9368 117.127 40.9368C117.274 40.9368 117.494 40.9001 117.604 40.7534C117.641 40.7168 117.751 40.6434 117.897 40.4968C118.007 40.4235 118.081 40.3501 118.154 40.3501C118.374 40.3501 118.557 40.5334 118.557 40.7168C118.557 40.9368 118.447 41.1201 118.154 41.4134C117.421 42.1467 116.614 42.5133 115.808 42.5133C114.671 42.5133 114.121 41.8533 114.048 40.3135C113.058 41.3034 112.654 41.5234 111.408 41.9633C110.308 42.3666 109.098 42.55 107.961 42.55C104.772 42.55 102.829 40.9734 102.829 38.3703C102.829 36.8304 103.525 35.5838 104.808 34.8139C105.908 34.1906 107.595 33.604 110.051 32.9074L112.618 32.2108L114.231 31.6975ZM114.231 36.0238V32.6507L112.874 33.0907L110.235 33.9706C108.731 34.4473 107.265 35.1072 106.458 35.6938C105.725 36.2438 105.285 37.1604 105.285 38.2236C105.285 40.1668 106.678 41.4134 108.915 41.4134C110.601 41.4134 112.361 40.6434 113.278 39.5802C114.011 38.7003 114.231 37.7837 114.231 36.0238ZM134.348 37.6737C133.468 38.9569 133.101 39.3969 132.074 40.3135C130.351 41.89 128.921 42.5133 127.125 42.5133C125.365 42.5133 123.788 41.78 122.909 40.3868C122.139 39.2502 121.919 38.187 121.919 35.8038V30.3776C121.919 28.1044 121.625 27.6645 120.195 27.5178C119.975 27.4811 119.865 27.4078 119.865 27.2245C119.865 26.9312 120.012 26.8212 120.489 26.6745C121.259 26.4179 122.249 25.8679 122.835 25.318C123.092 25.0613 123.275 24.9513 123.422 24.9513C123.715 24.9513 123.935 25.0613 123.935 25.3546V35.7305C123.935 39.0302 125.218 40.6801 127.858 40.6801C128.591 40.6801 129.435 40.4968 130.095 40.1668C130.791 39.8368 131.451 39.3969 132.074 38.8469C133.211 37.9303 133.578 37.417 134.421 35.9505V30.3776C134.421 28.1044 134.164 27.6645 132.734 27.5178C132.441 27.4811 132.368 27.4078 132.368 27.2245C132.368 26.9312 132.514 26.8212 132.991 26.6745C133.761 26.4179 134.788 25.8679 135.374 25.318C135.558 25.098 135.814 24.9513 135.924 24.9513C136.291 24.9513 136.511 25.0613 136.511 25.3546V37.197C136.511 39.2136 136.914 40.0568 137.941 40.1301C138.454 40.1668 138.491 40.2035 138.491 40.4968C138.491 40.7168 138.381 40.8634 137.904 41.0101C137.574 41.1201 137.134 41.3401 136.621 41.5967C136.144 41.89 135.778 42.11 135.521 42.33C135.118 42.6599 134.971 42.6966 134.751 42.6966C134.458 42.6966 134.384 42.6233 134.384 42.22L134.348 41.2301V37.6737ZM141.934 26.4179H140.541C140.028 26.4179 139.844 26.3446 139.844 26.0513C139.844 25.7946 139.881 25.7579 140.248 25.538C140.651 25.3546 141.458 24.548 142.044 23.7781C142.484 23.2281 143.071 22.1649 143.291 21.6516C143.511 21.2483 143.621 21.065 143.877 21.065C143.951 21.065 144.024 21.1016 144.024 21.1383C144.024 21.175 144.061 21.3583 144.061 21.6149V25.3546H149.34C149.964 25.3546 150.074 25.428 150.074 25.9046C150.074 26.3079 149.89 26.4179 149.304 26.4179H144.061V36.2438C144.061 38.0036 144.097 38.6269 144.427 39.3969C144.757 40.3501 145.747 40.9368 147.03 40.9368C148.167 40.9368 149.304 40.4601 150.44 39.4702C151.027 38.9936 151.1 38.9202 151.283 38.9202C151.393 38.9202 151.503 38.9936 151.613 39.1036C151.687 39.1769 151.723 39.2869 151.723 39.3969C151.723 39.5435 151.467 39.8735 150.88 40.3868C149.12 41.8533 147.654 42.55 146.187 42.55C145.417 42.55 144.647 42.3666 144.061 42C143.401 41.6334 142.887 41.0834 142.521 40.4601C142.007 39.5069 141.934 38.7369 141.934 36.2805V26.4179ZM159.583 41.45L153.681 29.3143C153.644 29.2043 153.461 28.911 153.277 28.5077C153.094 28.1411 152.874 27.8111 152.764 27.5178C152.251 26.6379 151.664 26.1979 150.857 26.0879H150.528C150.271 26.0513 150.161 25.9779 150.161 25.7579C150.161 25.5013 150.271 25.3913 150.454 25.3546H150.674H156.394H156.577C156.797 25.3546 156.87 25.5013 156.87 25.7579C156.87 25.9779 156.797 26.0513 156.54 26.0879H156.174C155.514 26.1979 155.184 26.4179 155.184 26.8945C155.184 27.0412 155.22 27.2978 155.294 27.5178C155.624 28.3244 155.917 29.0944 156.1 29.3143L160.61 38.7003L164.093 29.3143C164.46 28.3977 164.716 27.2978 164.716 27.0045C164.716 26.4546 164.423 26.1979 163.653 26.0879H163.323C163.067 26.0513 162.957 25.9779 162.957 25.7579C162.957 25.5013 163.067 25.3546 163.25 25.3546H163.47H167.906H168.089C168.309 25.3546 168.419 25.5013 168.419 25.7579C168.419 25.9779 168.309 26.0513 168.016 26.0879H167.723C167.063 26.1979 166.55 26.3812 166.183 26.7845C166 26.9679 165.853 27.2612 165.706 27.5178C165.633 27.7378 165.486 28.0311 165.303 28.5077C165.12 28.9477 165.01 29.2043 164.973 29.3143L158.814 46.4363C157.97 48.8561 156.724 49.9194 154.817 49.9194C153.057 49.9194 151.444 48.7828 151.444 47.4629C151.444 46.803 151.994 46.2897 152.691 46.2897C152.911 46.2897 153.204 46.363 153.387 46.473C153.607 46.583 153.717 46.7663 153.827 46.9496C153.901 47.0963 153.901 47.0963 154.047 47.4262C154.414 48.2695 154.891 48.7095 155.55 48.7095C156.577 48.7095 157.604 47.6462 158.08 46.0697L159.583 41.45Z" fill="#D86B56"/>
<path d="M71.6515 52.1851C71.6515 52.6876 71.5298 53.1155 71.2864 53.4688C71.043 53.8143 70.6936 54.0813 70.2382 54.2697C69.7906 54.4581 69.2607 54.5523 68.6482 54.5523C68.3342 54.5523 68.0319 54.5366 67.7414 54.5052C67.4587 54.4738 67.1996 54.4306 66.9641 54.3757C66.7285 54.3129 66.5205 54.2383 66.3399 54.1519V53.1391C66.6226 53.2647 66.9719 53.3785 67.3881 53.4806C67.8121 53.5827 68.2478 53.6337 68.6954 53.6337C69.1115 53.6337 69.4609 53.5788 69.7435 53.4688C70.0262 53.3589 70.2382 53.2019 70.3795 52.9977C70.5208 52.7936 70.5915 52.5541 70.5915 52.2793C70.5915 52.0045 70.5326 51.7729 70.4148 51.5845C70.2971 51.396 70.0929 51.2233 69.8024 51.0663C69.5198 50.9014 69.1233 50.7287 68.6129 50.5481C68.2517 50.4146 67.9338 50.2733 67.659 50.1241C67.392 49.9671 67.1682 49.7904 66.9876 49.5941C66.8071 49.3978 66.6697 49.1741 66.5754 48.9228C66.4891 48.6716 66.4459 48.381 66.4459 48.0513C66.4459 47.6037 66.5597 47.2229 66.7874 46.9089C67.0151 46.587 67.3292 46.3397 67.7296 46.1669C68.1379 45.9942 68.6051 45.9078 69.1311 45.9078C69.5944 45.9078 70.0183 45.951 70.4031 46.0374C70.7878 46.1237 71.1372 46.2376 71.4512 46.3789L71.1215 47.2858C70.831 47.1601 70.513 47.0541 70.1675 46.9678C69.8299 46.8814 69.4766 46.8382 69.1076 46.8382C68.7542 46.8382 68.4598 46.8893 68.2243 46.9913C67.9887 47.0934 67.8121 47.2387 67.6943 47.4271C67.5765 47.6077 67.5176 47.8197 67.5176 48.0631C67.5176 48.3457 67.5765 48.5813 67.6943 48.7697C67.8121 48.9581 68.0044 49.1269 68.2714 49.2761C68.5383 49.4253 68.8995 49.5863 69.3549 49.759C69.8495 49.9396 70.2657 50.1359 70.6033 50.3479C70.9487 50.552 71.2078 50.7993 71.3806 51.0898C71.5612 51.3803 71.6515 51.7454 71.6515 52.1851ZM84.5102 54.4346L83.4974 51.8318H80.1644L79.1633 54.4346H78.0916L81.3775 45.9903H82.3314L85.6055 54.4346H84.5102ZM82.2372 48.3457C82.2137 48.2829 82.1744 48.1691 82.1194 48.0042C82.0645 47.8393 82.0095 47.6705 81.9546 47.4978C81.9074 47.3172 81.8682 47.1798 81.8368 47.0855C81.7975 47.2426 81.7543 47.4035 81.7072 47.5684C81.668 47.7254 81.6248 47.8707 81.5777 48.0042C81.5384 48.1376 81.5031 48.2515 81.4717 48.3457L80.5177 50.8896H83.1794L82.2372 48.3457ZM92.6445 54.4346V46.0256H93.7044V53.4924H97.3789V54.4346H92.6445ZM111.816 50.2183C111.816 50.87 111.734 51.4628 111.569 51.9967C111.404 52.5227 111.157 52.9781 110.827 53.3628C110.505 53.7476 110.101 54.042 109.614 54.2461C109.135 54.4503 108.578 54.5523 107.942 54.5523C107.282 54.5523 106.709 54.4503 106.222 54.2461C105.735 54.0341 105.331 53.7397 105.009 53.3628C104.687 52.9781 104.448 52.5188 104.291 51.9849C104.134 51.451 104.055 50.8582 104.055 50.2065C104.055 49.3429 104.197 48.5891 104.479 47.9453C104.762 47.3015 105.19 46.799 105.763 46.4378C106.344 46.0766 107.074 45.896 107.954 45.896C108.794 45.896 109.5 46.0766 110.073 46.4378C110.647 46.7911 111.078 47.2936 111.369 47.9453C111.667 48.5891 111.816 49.3468 111.816 50.2183ZM105.174 50.2183C105.174 50.9249 105.272 51.5334 105.469 52.0438C105.665 52.5541 105.967 52.9467 106.375 53.2215C106.792 53.4963 107.314 53.6337 107.942 53.6337C108.578 53.6337 109.096 53.4963 109.496 53.2215C109.905 52.9467 110.207 52.5541 110.403 52.0438C110.6 51.5334 110.698 50.9249 110.698 50.2183C110.698 49.1583 110.478 48.33 110.038 47.7333C109.598 47.1287 108.904 46.8264 107.954 46.8264C107.318 46.8264 106.792 46.9638 106.375 47.2387C105.967 47.5056 105.665 47.8943 105.469 48.4046C105.272 48.9071 105.174 49.5117 105.174 50.2183ZM126.906 50.2183C126.906 50.87 126.824 51.4628 126.659 51.9967C126.494 52.5227 126.247 52.9781 125.917 53.3628C125.595 53.7476 125.191 54.042 124.704 54.2461C124.225 54.4503 123.667 54.5523 123.031 54.5523C122.372 54.5523 121.799 54.4503 121.312 54.2461C120.825 54.0341 120.421 53.7397 120.099 53.3628C119.777 52.9781 119.537 52.5188 119.38 51.9849C119.223 51.451 119.145 50.8582 119.145 50.2065C119.145 49.3429 119.286 48.5891 119.569 47.9453C119.852 47.3015 120.279 46.799 120.853 46.4378C121.434 46.0766 122.164 45.896 123.043 45.896C123.883 45.896 124.59 46.0766 125.163 46.4378C125.736 46.7911 126.168 47.2936 126.459 47.9453C126.757 48.5891 126.906 49.3468 126.906 50.2183ZM120.264 50.2183C120.264 50.9249 120.362 51.5334 120.558 52.0438C120.754 52.5541 121.057 52.9467 121.465 53.2215C121.881 53.4963 122.403 53.6337 123.031 53.6337C123.667 53.6337 124.186 53.4963 124.586 53.2215C124.994 52.9467 125.297 52.5541 125.493 52.0438C125.689 51.5334 125.787 50.9249 125.787 50.2183C125.787 49.1583 125.567 48.33 125.128 47.7333C124.688 47.1287 123.993 46.8264 123.043 46.8264C122.407 46.8264 121.881 46.9638 121.465 47.2387C121.057 47.5056 120.754 47.8943 120.558 48.4046C120.362 48.9071 120.264 49.5117 120.264 50.2183ZM141.324 54.4346H140.088L135.589 47.4506H135.542C135.55 47.592 135.558 47.749 135.565 47.9217C135.581 48.0945 135.593 48.2829 135.601 48.487C135.609 48.6833 135.616 48.8875 135.624 49.0995C135.632 49.3115 135.636 49.5234 135.636 49.7354V54.4346H134.659V46.0256H135.883L140.371 52.986H140.418C140.41 52.8917 140.402 52.7622 140.394 52.5973C140.386 52.4246 140.378 52.2361 140.371 52.032C140.363 51.82 140.355 51.6041 140.347 51.3843C140.339 51.1644 140.335 50.9603 140.335 50.7718V46.0256H141.324V54.4346Z" fill="#5C5354"/>
<defs>
<clipPath id="clip0_451_605">
<rect width="45.913" height="66.9565" fill="white"/>
</clipPath>
</defs>
</svg>
